<?xml version="1.0" encoding="utf-8"?>
<svg xmlns="http://www.w3.org/2000/svg">
  <defs>
    <symbol id="check" viewBox="0 0 14 10" fill="transparent">
      <path
        d="m1 5 4 4 8-8"
        stroke="currentColor"
        stroke-width="1.5"
        stroke-linecap="round"
        stroke-linejoin="round"
      />
    </symbol>
    <symbol id="chevron" viewBox="0 0 14 8" fill="transparent">
      <path
        d="M13 7 7 1 1 7"
        stroke="currentColor"
        stroke-width="2"
        stroke-linecap="round"
        stroke-linejoin="round"
      />
    </symbol>
    <symbol id="logo" viewBox="0 0 32 28" fill="none">
      <path
        fill-rule="evenodd"
        clip-rule="evenodd"
        fill="#000"
        d="M81 79.3 17 0H0v79.3h13.6V17l50.2 62.3H81Zm252.6-.4c-1 0-1.8-.4-2.5-1s-1.1-1.6-1.1-2.6.3-1.8 1-2.5 1.6-1 2.6-1 1.8.3 2.5 1a3.4 3.4 0 0 1 .6 4.3 3.7 3.7 0 0 1-3 1.8zm23.2-33.5h6v23.3c0 2.1-.4 4-1.3 5.5a9.1 9.1 0 0 1-3.8 3.5c-1.6.8-3.5 1.3-5.7 1.3-2 0-3.7-.4-5.3-1s-2.8-1.8-3.7-3.2c-.9-1.3-1.4-3-1.4-5h6c.1.8.3 1.6.7 2.2s1 1.2 1.6 1.5c.7.4 1.5.5 2.4.5 1 0 1.8-.2 2.4-.6a4 4 0 0 0 1.6-1.8c.3-.8.5-1.8.5-3V45.5zm30.9 9.1a4.4 4.4 0 0 0-2-3.3 7.5 7.5 0 0 0-4.3-1.1c-1.3 0-2.4.2-3.3.5-.9.4-1.6 1-2 1.6a3.5 3.5 0 0 0-.3 4c.3.5.7.9 1.3 1.2l1.8 1 2 .5 3.2.8c1.3.3 2.5.7 3.7 1.2a13 13 0 0 1 3.2 1.8 8.1 8.1 0 0 1 3 6.5c0 2-.5 3.7-1.5 5.1a10 10 0 0 1-4.4 3.5c-1.8.8-4.1 1.2-6.8 1.2-2.6 0-4.9-.4-6.8-1.2-2-.8-3.4-2-4.5-3.5a10 10 0 0 1-1.7-5.6h6a5 5 0 0 0 3.5 4.6c1 .4 2.2.6 3.4.6 1.3 0 2.5-.2 3.5-.6 1-.4 1.8-1 2.4-1.7a4 4 0 0 0 .8-2.4c0-.9-.2-1.6-.7-2.2a11 11 0 0 0-2.1-1.4l-3.2-1-3.8-1c-2.8-.7-5-1.7-6.6-3.2a7.2 7.2 0 0 1-2.4-5.7 8 8 0 0 1 1.7-5 10 10 0 0 1 4.3-3.5c2-.8 4-1.2 6.4-1.2 2.3 0 4.4.4 6.2 1.2 1.8.8 3.2 2 4.3 3.4 1 1.4 1.5 3 1.5 5h-5.8z"
      />
    </symbol>

    <symbol id="question" viewBox="0 0 16 16" fill="none">
      <g clip-path="url(#question-clip)">
        <path
          d="M6.06 6a2 2 0 0 1 3.887.667c0 1.333-2 2-2 2M8 11.333h.007M14.667 8A6.667 6.667 0 1 1 1.333 8a6.667 6.667 0 0 1 13.334 0Z"
          stroke="currentColor"
          stroke-width="1.333"
          stroke-linecap="round"
          stroke-linejoin="round"
        />
      </g>
      <defs>
        <clipPath id="question-clip">
          <path fill="#fff" d="M0 0h16v16H0z" />
        </clipPath>
      </defs>
    </symbol>

    <symbol id="link-external" viewBox="0 0 20 20" fill="none">
      <path
        d="M17.5 7.5v-5m0 0h-5m5 0-6.667 6.667m-2.5-5H6.5c-1.4 0-2.1 0-2.635.272a2.5 2.5 0 0 0-1.093 1.093C2.5 6.066 2.5 6.767 2.5 8.167V13.5c0 1.4 0 2.1.272 2.635a2.5 2.5 0 0 0 1.093 1.092C4.4 17.5 5.1 17.5 6.5 17.5h5.333c1.4 0 2.1 0 2.635-.273a2.5 2.5 0 0 0 1.093-1.092c.272-.535.272-1.235.272-2.635v-1.833"
        stroke="currentColor"
        stroke-width="1.667"
        stroke-linecap="round"
        stroke-linejoin="round"
      />
    </symbol>

    <symbol id="x-close" viewBox="0 0 20 20" fill="none">
      <path
        d="M15 5 5 15M5 5l10 10"
        stroke="currentColor"
        stroke-width="1.667"
        stroke-linecap="round"
        stroke-linejoin="round"
      />
    </symbol>

    <symbol id="eth" viewBox="0 0 16 16" fill="none">
      <rect width="16" height="16" rx="8" fill="#4753BE" />
      <g fill="#fff">
        <path d="m7.998 2.666-.07.238v6.914l.07.07 3.21-1.897-3.21-5.325Z" />
        <path
          d="m7.997 2.666-3.21 5.325 3.21 1.897V2.666ZM7.997 10.932l-.04.048v2.463l.04.116 3.21-4.523-3.21 1.896Z"
        />
        <path
          d="M7.997 13.559v-2.627l-3.21-1.896 3.21 4.523ZM7.996 9.888l3.21-1.897-3.21-1.459v3.356Z"
        />
        <path d="m4.787 7.991 3.21 1.897V6.532l-3.21 1.459Z" />
      </g>
    </symbol>

    <symbol id="hamburger" fill="none" viewBox="0 0 12 16">
      <path
        fill="currentColor"
        d="M0 2.75h12v1.5H0zM0 7.25h12v1.5H0zM0 11.75h12v1.5H0z"
      />
    </symbol>

    <symbol id="uma-logo" viewBox="0 0 63 16" fill="currentcolor">
      <path
        fill-rule="evenodd"
        clip-rule="evenodd"
        d="M39.9692 15.6873H37.3335C36.8384 15.6873 36.4372 15.2849 36.4372 14.7891V7.80869L31.8106 10.7159C31.4225 10.9599 30.9289 10.9599 30.5408 10.7159L25.9143 7.80839V14.7891C25.9143 15.2849 25.5127 15.6873 25.0179 15.6873H22.3822C21.8868 15.6873 21.4858 15.2849 21.4858 14.7891V1.33507C21.4858 0.371693 22.5633 -0.197413 23.3563 0.347144L30.6692 5.36731C30.9743 5.57717 31.3771 5.57717 31.6825 5.36731L38.9948 0.347144C39.7881 -0.197712 40.8656 0.371393 40.8656 1.33477V14.7891C40.8656 15.2849 40.4643 15.6873 39.9692 15.6873Z"
      />
      <path
        fill-rule="evenodd"
        clip-rule="evenodd"
        d="M17.5172 15.5673L1.18946 15.567C0.532581 15.567 0 15.0331 0 14.3745V0.894417C0 0.400401 0.399361 0 0.892096 0H3.51515C4.00759 0 4.40725 0.400401 4.40725 0.894417V11.1483L14.2994 11.1486V0.894417C14.2994 0.400401 14.6985 0 15.1915 0H17.8146C18.307 0 18.7066 0.400401 18.7066 0.894417V14.3748C18.7066 15.0334 18.1741 15.5673 17.5172 15.5673Z"
      />
      <path
        fill-rule="evenodd"
        clip-rule="evenodd"
        d="M44.7998 0L61.1275 0.000298139C61.7844 0.000298139 62.317 0.534265 62.317 1.19285V14.6729C62.317 15.1669 61.9173 15.5673 61.4249 15.5673H58.8019C58.3091 15.5673 57.9098 15.1669 57.9098 14.6729V5.0153C57.9098 4.68615 57.6433 4.41902 57.315 4.41902L48.6123 4.41872C48.284 4.41872 48.0176 4.68555 48.0176 5.015V14.6729C48.0176 15.1669 47.6182 15.5673 47.1255 15.5673H44.5024C44.0097 15.5673 43.6104 15.1669 43.6104 14.6729V1.19256C43.6104 0.533967 44.1429 0 44.7998 0Z"
      />
      <path
        fill-rule="evenodd"
        clip-rule="evenodd"
        d="M50.7588 8.19314V10.8469C50.7588 11.3377 51.1585 11.7354 51.6516 11.7354H54.2745C54.7677 11.7354 55.1674 11.3377 55.1674 10.8469V8.19314C55.1674 7.70242 54.7677 7.30469 54.2745 7.30469H51.6516C51.1585 7.30469 50.7588 7.70242 50.7588 8.19314Z"
      />
    </symbol>
  </defs>
</svg>
